# AST/ASF file generated using VICON BodyLanguage
# -----------------------------------------------
:version 1.10
:name VICON
:units
  mass 1.0
  length 0.45
  angle deg
:documentation
   .ast/.asf automatically generated from VICON data using
   VICON BodyBuilder and BodyLanguage model FoxedUp or BRILLIANT.MOD
:root
   order TX TY TZ RX RY RZ
   axis XYZ
   position 0 0 0  
   orientation 0 0 0 
:bonedata
  begin
     id 1 
     name lhipjoint
     direction 0.521452 -0.77106 0.36545 
     length 2.0933 
     axis 0 0 0  XYZ
  end
  begin
     id 2 
     name lfemur
     direction 0.34202 -0.939693 0  
     length 6.83441  
     axis 0 0 20  XYZ
    dof rx ry rz
    limits (-160.0 20.0)
           (-70.0 70.0)
           (-60.0 70.0)
  end
  begin
     id 3 
     name ltibia
     direction 0.34202 -0.939693 0   
     length 7.28749   
     axis 0 0 20   XYZ
    dof rx
    limits (-10.0 170.0)
  end
  begin
     id 4 
     name lfoot
     direction 0.100608 -0.276418 0.955757   
     length 1.52195   
     axis -90 7.62852e-016 20   XYZ
    dof rx rz
    limits (-45.0 90.0)
           (-70.0 20.0)
  end
  begin
     id 5 
     name ltoes
     direction 1.53558e-011 -4.21907e-011 1   
     length 0.770459   
     axis -90 7.62852e-016 20   XYZ
    dof rx
    limits (-90.0 20.0)
  end
  begin
     id 6 
     name rhipjoint
     direction -0.488071 -0.788702 0.373812   
     length 2.04648  
     axis 0 0 0  XYZ 
  end
  begin
     id 7 
     name rfemur
     direction -0.34202 -0.939693 0   
     length 6.92583   
     axis 0 0 -20   XYZ
    dof rx ry rz
    limits (-160.0 20.0)
           (-70.0 70.0)
           (-70.0 60.0)
  end
  begin
     id 8 
     name rtibia
     direction -0.34202 -0.939693 0   
     length 7.41043   
     axis 0 0 -20   XYZ
    dof rx
    limits (-10.0 170.0)
 end
 begin
     id 9 
     name rfoot
     direction -0.0784433 -0.215521 0.973343   
     length 1.67708  
     axis -90 -7.62852e-016 -20   XYZ
    dof rx rz
    limits (-45.0 90.0)
           (-20.0 70.0)
  end
  begin
     id 10 
     name rtoes
     direction -1.53551e-011 -4.21842e-011 1   
     length 0.849787   
     axis -90 -7.62852e-016 -20   XYZ
    dof rx
    limits (-90.0 20.0)
  end
  begin
     id 11 
     name lowerback
     direction -0.0122332 0.997575 -0.0685192   
     length 1.98724   
     axis 0 0 0   XYZ
    dof rx ry rz
    limits (-20.0 45.0)
           (-30.0 30.0)
           (-30.0 30.0)
  end
  begin
     id 12 
     name upperback
     direction 0.0182347 0.999724 -0.0148421   
     length 1.99029   
     axis 0 0 0   XYZ
    dof rx ry rz
    limits (-20.0 45.0)
           (-30.0 30.0)
           (-30.0 30.0)
  end
  begin
     id 13 
     name thorax
     direction 0.0242908 0.99956 0.0170184   
     length 1.99573   
     axis 0 0 0   XYZ
    dof rx ry rz
    limits (-20.0 45.0)
           (-30.0 30.0)
           (-30.0 30.0)
  end
  begin
     id 14 
     name lowerneck
     direction 0.0654488 0.985533 0.156338   
     length 1.4285   
     axis 0 0 0   XYZ
    dof rx ry rz
    limits (-20.0 45.0)
           (-30.0 30.0)
           (-30.0 30.0)
  end
  begin
     id 15 
     name upperneck
     direction -0.02953 0.998556 -0.0448842   
     length 1.44709   
     axis 0 0 0   XYZ
    dof rx ry rz
    limits (-20.0 45.0)
           (-30.0 30.0)
           (-30.0 30.0)
  end
  begin
     id 16
     name head
     direction -0.0155588 0.999386 -0.0314063  
     length 1.44689  
     axis 0 0 0   XYZ
    dof rx ry rz
    limits (-20.0 45.0)
           (-30.0 30.0)
           (-30.0 30.0)
  end
  begin
     id 17 
     name lclavicle
     direction 0.968229 0.236071 -0.0824755  
     length 3.60593  
     axis 0 0 0   XYZ
    dof ry rz
    limits (-20.0 10.0)
           (0.0 20.0)
  end
  begin
     id 18 
     name lhumerus
     direction 1 -4.48968e-011 7.8138e-029   
     length 5.06035   
     axis 180 -30 -90   XYZ
    dof rx ry rz
    limits (-60.0 90.0)
           (-90.0 90.0)
           (-90.0 90.0)
  end
  begin
     id 19
     name lradius
     direction 1 -4.48967e-011 9.02887e-028   
     length 3.1478   
     axis 180 -30 -90   XYZ
    dof rx
    limits (-10.0 170.0)
  end
  begin
     id 20
     name lwrist
     direction 1 -4.48961e-011 7.20928e-028   
     length 1.5739   
     axis -5.52449e-016 90 90   XYZ
    dof ry
    limits (-180.0 0.0)
 end
  begin
     id 21 
     name lhand
     direction 1 -4.48972e-011 1.44186e-027   
     length 0.606747   
     axis -9.20027e-016 90 90   XYZ
    dof rx rz
    limits (-90.0 90.0)
           (-45.0 45.0)
  end
  begin
     id 22 
     name lfingers
     direction 1 -4.48943e-011 2.88371e-027   
     length 0.489175   
     axis -1.84005e-015 90 90   XYZ
    dof rx
    limits (0.0 90.0)
  end
  begin
     id 23
     name lthumb
     direction 0.707107 -6.34917e-011 0.707107   
     length 0.70236   
     axis -90 45 2.85299e-015   XYZ
    dof rx rz
    limits (-45.0 45.0)
           (-45.0 45.0)
  end
  begin
     id 24 
     name rclavicle
     direction -0.978165 0.207816 0.0022268   
     length 3.35425  
     axis 0 0 0   XYZ 
    dof ry rz
    limits (-10.0 20.0)
           (-20.0 0.0)
  end
  begin
     id 25 
     name rhumerus
     direction -1 -4.48964e-011 -4.02159e-027  
     length 5.12273   
     axis 180 30 90   XYZ
    dof rx ry rz
    limits (-90.0 60.0)
           (-90.0 90.0)
           (-90.0 90.0)
  end
  begin
     id 26 
     name rradius
     direction -1 -4.48966e-011 1.62746e-027   
     length 3.422   
     axis 180 30 90   XYZ
    dof rx
    limits (-10.0 170.0)
  end
  begin
     id 27 
     name rwrist
     direction -1 -4.4896e-011 7.20928e-028   
     length 1.711   
     axis -5.52449e-016 -90 -90   XYZ
    dof ry
    limits (-180.0 0.0)
  end
  begin
     id 28
     name rhand
     direction -1 -4.48979e-011 1.44186e-027   
     length 0.704599   
     axis -9.20027e-016 -90 -90   XYZ
    dof rx rz
    limits (-90.0 90.0)
           (-45.0 45.0)
  end
  begin
     id 29
     name rfingers
     direction -1 -4.48962e-011 2.88371e-027   
     length 0.568066   
     axis -1.84005e-015 -90 -90   XYZ
    dof rx
    limits (0.0 90.0)
  end
  begin
     id 30
     name rthumb
     direction -0.707107 -6.34949e-011 0.707107   
     length 0.815633   
     axis -90 -45 -2.85299e-015   XYZ
    dof rx rz
    limits (-45.0 45.0)
           (-45.0 45.0)
  end
:hierarchy
  begin
    root lhipjoint rhipjoint lowerback
    lhipjoint lfemur
    lfemur ltibia
    ltibia lfoot
    lfoot ltoes
    rhipjoint rfemur
    rfemur rtibia
    rtibia rfoot
    rfoot rtoes
    lowerback upperback
    upperback thorax
    thorax lowerneck lclavicle rclavicle
    lowerneck upperneck
    upperneck head
    lclavicle lhumerus
    lhumerus lradius
    lradius lwrist
    lwrist lhand lthumb
    lhand lfingers
    rclavicle rhumerus
    rhumerus rradius
    rradius rwrist
    rwrist rhand rthumb
    rhand rfingers
  end

#!OML:ASF E:\id_vita\Project 1\Capture day 1\Session 1\Male1.ASF
:FULLY-SPECIFIED
:DEGREES
1
root -8.06 26.9713 0.0756719 -121.241 87.6308 -125.294
lowerback -1.42131 -1.84873 -2.84237
upperback -0.0683252 -2.43002 1.62504
thorax 0.915424 -1.22987 3.20534
lowerneck -8.83014 1.96934 5.21412
upperneck 18.8151 2.33093 -1.14782
head 7.30032 1.48145 -1.02116
rclavicle 1.13105e-014 8.94531e-016
rhumerus -31.7606 -11.2604 -82.4768
rradius 23.8918
rwrist 4.32457
rhand -19.0798 36.1634
rfingers 7.12502
rthumb 7.22813 6.30683
lclavicle 1.13105e-014 8.94531e-016
lhumerus -30.5617 28.2472 75.0468
lradius 16.5605
lwrist -9.79857
lhand -14.3354 44.4856
lfingers 7.12502
lthumb 11.8057 74.1329
rfemur -6.63571 3.24465 17.3261
rtibia 22.3766
rfoot -15.4781 -14.577
rtoes -10.2446
lfemur -9.08234 -4.30491 -14.1022
ltibia 29.3372
lfoot -27.5007 4.8802
ltoes 25.3121
2
root -8.05747 26.9695 0.0772901 -119.483 87.6404 -123.555
lowerback -1.44541 -1.82658 -2.83066
upperback -0.0748647 -2.40009 1.64152
thorax 0.92014 -1.21481 3.21591
lowerneck -8.86134 1.99659 5.18695
upperneck 18.9488 2.36999 -1.11704
head 7.35015 1.50412 -1.00237
rclavicle -8.26199e-015 3.03147e-015
rhumerus -31.7816 -11.3441 -82.4491
rradius 23.8782
rwrist 4.4318
rhand -17.4642 37.1154
rfingers 7.12502
rthumb 8.78742 7.31831
lclavicle -8.26199e-015 3.03147e-015
lhumerus -30.596 28.4811 74.9212
lradius 16.4531
lwrist -10.0059
lhand -14.2581 44.255
lfingers 7.12502
lthumb 11.8803 73.898
rfemur -6.63335 3.36363 17.3677
rtibia 22.3231
rfoot -15.3706 -14.6847
rtoes -10.8333
lfemur -9.12796 -4.13465 -14.0548
ltibia 29.4037
lfoot -27.5134 4.82614
ltoes 25.1937
3
root -8.05868 26.9683 0.0759499 -116.918 87.6172 -120.975
lowerback -1.41179 -1.76932 -2.71491
upperback -0.0527327 -2.32618 1.65018
thorax 0.91402 -1.17747 3.16253
lowerneck -8.93078 1.99531 5.1121
upperneck 18.97 2.35032 -0.983149
head 7.36654 1.50122 -0.947359
rclavicle 1.15652e-014 1.75676e-014
rhumerus -31.7191 -11.5243 -82.3836
rradius 23.7857
rwrist 4.5622
rhand -19.0575 36.2158
rfingers 7.12502
rthumb 7.24965 6.36001
lclavicle 1.15652e-014 1.75676e-014
lhumerus -30.5417 28.5494 74.9159
lradius 16.3658
lwrist -10.1199
lhand -14.3751 44.3432
lfingers 7.12502
lthumb 11.7674 73.9927
rfemur -6.62906 3.4563 17.4332
rtibia 22.2903
rfoot -15.3436 -14.7807
rtoes -11.198
lfemur -9.14123 -4.02585 -13.9836
ltibia 29.4406
lfoot -27.496 4.86383
ltoes 24.9695
4
root -8.05793 26.9688 0.0774994 -117.607 87.5871 -121.656
lowerback -1.4128 -1.754 -2.70044
upperback -0.0269067 -2.30592 1.64045
thorax 0.938585 -1.16803 3.1444
lowerneck -8.85473 2.046 5.00845
upperneck 18.8341 2.4179 -0.87513
head 7.30816 1.5333 -0.889996
rclavicle -6.72451e-015 8.44835e-016
rhumerus -31.6656 -11.5621 -82.3934
rradius 23.6935
rwrist 4.52469
rhand -17.5834 37.0821
rfingers 7.12502
rthumb 8.67234 7.28026
lclavicle -6.72451e-015 8.44835e-016
lhumerus -30.485 28.5281 74.9367
lradius 16.2889
lwrist -10.1798
lhand -14.5856 44.2419
lfingers 7.12502
lthumb 11.5644 73.9028
rfemur -6.57077 3.32342 17.4401
rtibia 22.2071
rfoot -15.4579 -14.7019
rtoes -11.0917
lfemur -9.1713 -4.06623 -13.9633
ltibia 29.5174
lfoot -27.5092 4.80704
ltoes 25.0959
5
root -8.05247 26.9669 0.0824495 -122.474 87.4945 -126.474
lowerback -1.3985 -1.81758 -2.79128
upperback -0.0139036 -2.38976 1.62895
thorax 0.953464 -1.21093 3.18147
lowerneck -8.80138 2.06219 5.07588
upperneck 18.8411 2.44076 -0.910623
head 7.30312 1.54673 -0.911093
rclavicle -2.47238e-015 -1.09829e-014
rhumerus -31.7234 -11.4456 -82.4648
rradius 23.6845
rwrist 4.35865
rhand -18.1016 36.7441
rfingers 7.12502
rthumb 8.17227 6.92217
lclavicle -2.47238e-015 -1.09829e-014
lhumerus -30.5402 28.4911 74.8743
lradius 16.2269
lwrist -10.2124
lhand -14.628 43.8906
lfingers 7.12502
lthumb 11.5235 73.5538
rfemur -6.39105 3.15098 17.4359
rtibia 22.1087
rfoot -15.5033 -14.7236
rtoes -11.0235
lfemur -9.19948 -3.91324 -13.9447
ltibia 29.6299
lfoot -27.4935 4.47174
ltoes 24.9508
6
root -8.04191 26.963 0.0907748 -129.149 87.2153 -133.156
lowerback -1.47694 -1.94632 -2.88756
upperback -0.0333462 -2.55838 1.66261
thorax 0.996168 -1.29629 3.26301
lowerneck -8.76774 2.10503 5.14016
upperneck 18.9409 2.50328 -0.946945
head 7.33314 1.5811 -0.927776
rclavicle -3.48929e-014 -7.65321e-015
rhumerus -31.8712 -11.2634 -82.5276
rradius 23.7312
rwrist 4.25032
rhand -18.3902 36.6752
rfingers 7.12502
rthumb 7.89378 6.84257
lclavicle -3.48929e-014 -7.65321e-015
lhumerus -30.6913 28.4005 74.7968
lradius 16.2277
lwrist -10.1661
lhand -14.5144 44.1499
lfingers 7.12502
lthumb 11.6331 73.807
rfemur -6.20762 3.12486 17.5638
rtibia 22.0158
rfoot -15.2607 -15.28
rtoes -12.2251
lfemur -9.32996 -3.55726 -13.797
ltibia 29.7429
lfoot -27.4267 3.87376
ltoes 24.4627
7
root -8.04568 26.9589 0.0854735 -122.896 87.3491 -126.859
lowerback -1.34964 -1.82895 -2.74613
upperback -0.058124 -2.40679 1.67409
thorax 0.882079 -1.2174 3.20469
lowerneck -8.82625 2.11875 5.12802
upperneck 19.0717 2.52566 -0.951725
head 7.38688 1.59331 -0.924175
rclavicle 4.95409e-015 2.98177e-016
rhumerus -31.9809 -11.1343 -82.5455
rradius 23.7471
rwrist 4.3216
rhand -18.1501 36.7956
rfingers 7.12502
rthumb 8.12549 6.97187
lclavicle 4.95409e-015 2.98177e-016
lhumerus -30.8232 28.5449 74.6669
lradius 16.1801
lwrist -10.3311
lhand -14.3596 44.4688
lfingers 7.12502
lthumb 11.7824 74.1174
rfemur -6.23553 2.92244 17.5814
rtibia 21.9328
rfoot -15.1153 -14.9924
rtoes -13.5354
lfemur -9.29119 -3.782 -13.803
ltibia 29.882
lfoot -27.6041 4.36644
ltoes 24.594
8
root -8.03867 26.9575 0.0899392 -127.343 87.2139 -131.376
lowerback -1.44958 -1.91833 -2.83319
upperback -0.0764884 -2.52257 1.69505
thorax 0.932835 -1.27635 3.26886
lowerneck -8.86505 2.03759 5.14332
upperneck 19.2189 2.42669 -1.01832
head 7.4395 1.54464 -0.956645
rclavicle 2.62706e-014 -1.82882e-014
rhumerus -32.035 -11.1407 -82.5156
rradius 23.7071
rwrist 4.47537
rhand -17.9156 37.0727
rfingers 7.12502
rthumb 8.35174 7.25779
lclavicle 2.62706e-014 -1.82882e-014
lhumerus -30.8983 28.8316 74.4917
lradius 16.0369
lwrist -10.648
lhand -14.3187 44.1712
lfingers 7.12502
lthumb 11.8218 73.8176
rfemur -6.18613 2.83896 17.5911
rtibia 21.8605
rfoot -15.1217 -15.1381
rtoes -13.4752
lfemur -9.45038 -3.70024 -13.7579
ltibia 29.9737
lfoot -27.6138 4.03504
ltoes 24.8802
9
root -8.05 26.9571 0.0801036 -112.357 87.5678 -116.442
lowerback -1.30265 -1.67349 -2.66757
upperback -0.159382 -2.20122 1.69163
thorax 0.733809 -1.11017 3.18744
lowerneck -8.54874 2.05326 5.20115
upperneck 18.876 2.45831 -1.05688
head 7.27332 1.55524 -0.980096
rclavicle 1.03337e-014 -1.68967e-015
rhumerus -32.112 -11.0933 -82.5091
rradius 23.6434
rwrist 4.53917
rhand -18.3903 37.3705
rfingers 7.12502
rthumb 7.89365 7.53788
lclavicle 1.03337e-014 -1.68967e-015
lhumerus -31.034 29.1535 74.2635
lradius 15.8946
lwrist -10.9544
lhand -14.3136 43.8639
lfingers 7.12502
lthumb 11.8267 73.5099
rfemur -6.50326 2.62128 17.4833
rtibia 21.8705
rfoot -15.2582 -14.2091
rtoes -13.9019
lfemur -9.4176 -3.98085 -13.8615
ltibia 30.0146
lfoot -27.7536 5.07907
ltoes 25.0178
10
root -8.03614 26.96 0.0920647 -127.515 87.2643 -131.596
lowerback -1.38523 -1.93459 -2.97734
upperback -0.119088 -2.54384 1.71682
thorax 0.862006 -1.28585 3.37495
lowerneck -8.76388 2.05156 5.24369
upperneck 19.3095 2.44714 -1.0478
head 7.45369 1.56268 -0.981624
rclavicle 2.33168e-014 -9.74045e-015
rhumerus -32.095 -10.9754 -82.5832
rradius 23.5867
rwrist 4.48001
rhand -19.1961 37.1404
rfingers 7.12502
rthumb 7.11587 7.28002
lclavicle 2.33168e-014 -9.74045e-015
lhumerus -31.0773 29.5876 74.0488
lradius 15.7327
lwrist -11.3666
lhand -14.2987 43.8593
lfingers 7.12502
lthumb 11.841 73.5045
rfemur -6.25007 2.76666 17.4906
rtibia 21.8883
rfoot -15.4777 -14.7157
rtoes -12.086
lfemur -9.53198 -3.6347 -13.7985
ltibia 30.005
lfoot -27.5487 4.04128
ltoes 24.9395
11
root -8.03913 26.9621 0.0864714 -128.58 87.4238 -132.641
lowerback -1.25222 -1.90737 -3.09051
upperback -0.101601 -2.50944 1.6788
thorax 0.805779 -1.26846 3.40471
lowerneck -8.74139 2.19174 5.24276
upperneck 19.0123 2.64355 -1.1166
head 7.35983 1.64232 -0.987294
rclavicle -2.08134e-014 1.67973e-014
rhumerus -32.049 -10.9093 -82.6076
rradius 23.5717
rwrist 4.44108
rhand -19.6074 36.4268
rfingers 7.12502
rthumb 6.71887 6.55344
lclavicle -2.08134e-014 1.67973e-014
lhumerus -31.1167 30.0414 73.8852
lradius 15.5719
lwrist -11.809
lhand -14.4049 43.961
lfingers 7.12502
lthumb 11.7387 73.6121
rfemur -6.29043 2.65143 17.2452
rtibia 21.918
rfoot -15.7811 -14.2237
rtoes -10.5858
lfemur -9.50567 -3.82306 -14.0306
ltibia 30.0279
lfoot -27.5848 4.24336
ltoes 25.1392
